<svg xmlns="http://www.w3.org/2000/svg" viewBox="0 0 512 512"><defs><style>.cls-1{fill:#fff;}.cls-1,.cls-2{fill-rule:evenodd;}.cls-2,.cls-4{fill:#178c45;}.cls-3{fill:#781d51;}.cls-5{fill:#1d9342;}.cls-6{fill:#1a9241;}.cls-7{fill:#eaeef1;}</style></defs><g id="Layer_2" data-name="Layer 2"><path class="cls-1" d="M242.3,94.39c1.59,1.31,41.89,16.36,48.61,19.49a268.21,268.21,0,0,1,42.35,24.54c19.67,13.89,53.91,48.23,53.91,79v5.17c0,49.34-86.47,61.95-142.14,61.95h-9.11l-74.73-2.09-7.28-.49v60.24L194,345.28l40.14-.48c41.7,0,95.7-6.89,123-19.79,17.66-8.35,28.95-15.06,40.64-29.6,8.59-10.7,19.49-30.5,19.49-48.71V235.51c0-43.29-36-74.75-62.62-94C342.26,132.53,318.77,119,303,113.66c-15-5.1-43.48-17.92-60.68-19.27Z"/><path class="cls-1" d="M93.27,75.32l31.89-.86h41.91c114.73,0,273.34,65.66,273.34,166.94,0,89.93-98.19,125.64-195,125.64l-34.64.28-56.48-2v75.73h43.74c76.53,0,147.73-14.25,198.93-38.44,25.1-11.85,51.39-30.06,67.13-50.19C479.42,332.83,496,302.81,496,268.94V256C496,140,326.73,64.14,196.23,64.14H163.42c-12.17,0-63.89,7.43-70.15,11.18Z"/><path class="cls-2" d="M93.27,75.32l31.89-.86h41.91c114.73,0,273.34,65.66,273.34,166.94,0,89.93-98.19,125.64-195,125.64l-34.64.28-56.48-2v75.73h43.74c76.53,0,147.73-14.25,198.93-38.44,25.1-11.85,51.39-30.06,67.13-50.19C479.42,332.83,496,302.81,496,268.94V256C496,140,326.73,64.14,196.23,64.14H163.42c-12.17,0-63.89,7.43-70.15,11.18Z"/><polygon class="cls-3" points="170.48 289.92 167.85 298.41 154.31 309.7 165.18 282.44 170.48 289.92"/><path class="cls-3" d="M358.31,141.35c-12.35-8.95-35.84-22.46-51.63-27.82-15-5.11-43.48-17.92-60.68-19.27,1.59,1.31,41.88,16.36,48.61,19.48A269,269,0,0,1,337,138.28c19.67,13.9,53.91,48.24,53.91,79v5.16c0,45.28-72.81,59.63-127.82,61.69l1.28,59.66c36-2.2,74.7-8.66,96.47-18.94,17.66-8.35,28.95-15.06,40.64-29.61,8.59-10.7,19.49-30.49,19.49-48.7V235.38C420.93,192.09,384.94,160.63,358.31,141.35Z"/><path class="cls-4" d="M189.19,218.89a22.41,22.41,0,0,0,5.3,6.32c5.51,4.26,12.13,6.22,18.25,9.32,6.92,3.51,13.3,8,19.93,12a127.5,127.5,0,0,1,10.61,7.12c1.67,1.26,3.32,2.58,4.91,4,.67.58,3.4,3.85,4.14,3.83,19.47-.47,58.26-4.72,71.13-8.83,18.45-5.88,45.22-14.28,45.22-36.27v-9.19c0-15.52-23.14-47.3-33.05-53.51,1.43,3,7.14,16.75,7.14,20.07v2.5c0,32.21-52.55,39.3-88.43,39.3H236.48l-6.07-.37-44.77-2.74C186.29,212.42,188.73,218.13,189.19,218.89Z"/><path class="cls-5" d="M204.11,153.21c-.19-2.63-1.27-5.74-4.13-5.93-5-.32-4.07-3.4-4-6.39.07-1.88,0-3.77,0-5.66h0c0-3.09.24-6.19,0-9.26-1-10.69-4.57-20.32-14.19-26.23A79.25,79.25,0,0,0,153.7,89.05c-28.19-4.89-52.95,12.18-56.56,39.31-.65,4.89-.23,9.93-.28,14.9,0,1.49.47,3-1.86,3.5-6.17,1.42-7,6.39-6.49,11.31.62,6.57,2.23,13.82,7.37,17.68,6.41,4.82,7.42,11.46,10,17.75a81.56,81.56,0,0,0,6.29,12.4c4.85,7.82,4.69,14.55-1.15,21.7-2.06,2.51-1.68,3.85.25,6,9,9.79,20.1,16.21,32.61,20.52a7.4,7.4,0,0,0,5.08-.12c1.59-.56,3.16-1.17,4.72-1.8a75.61,75.61,0,0,0,23.42-14.46c6.29-5.83,6.21-5.89,2.11-13-.77-1.34-1.28-2.82-2.07-4.15a7.28,7.28,0,0,1-.8-6.75,13,13,0,0,1,1.6-2.9,74.18,74.18,0,0,0,12-26.1,11.4,11.4,0,0,1,3.68-5.74C200.76,172,204.84,163.46,204.11,153.21Z"/><path class="cls-3" d="M154.31,309.7l-11.38,28.58-36-107.89a98.89,98.89,0,0,0-27.51,8.79c-.48,2-7.39,30.15-6,35.32,0,0,7.19,1.73,15.25,17.93,0,0,8.35,15.33,1.61,23,0,0-3.08,3.33-6.45,3.61l0-.12a5.18,5.18,0,0,1-4.75,3.29,5.43,5.43,0,0,1,0-10.85,5.06,5.06,0,0,1,3.22,1.18,5,5,0,0,0,3-2.9S89,302.7,75.07,284.19c0,0-5.57-6.65-11.44-.58,0,0-11.28,16.49-10.84,21.69,0,0-1,5.9,1.76,6.06,0,0,.54,1.18,1.28,1.39a5,5,0,0,1,3.44-1.39,5.43,5.43,0,0,1,0,10.85,5.16,5.16,0,0,1-4.7-3.2c-2.43-.22-9.16-1.84-9.4-13,0,0,1.31-11.53,11.87-24.79,0,0,2.78-5.73,8.94-7,0,0,2.48-25.34,4.77-30.4a155.58,155.58,0,0,0-39.87,34v67.32H194.36l-40.05-3.05Z"/><path class="cls-3" d="M194.36,345.14h66.7l0-1.32c-9.13.56-18.09.85-26.54.85Z"/><path class="cls-3" d="M259.75,284.16l-.15-6.91A54.1,54.1,0,0,0,250,264.59c-8.87-8.92-20.84-16.32-32-22l3.72,2.22c2.88,5.72,4.38,13.33,5.16,20.39a142.74,142.74,0,0,1,.7,19l.11,0a14.77,14.77,0,1,1-7.14-.19h0c.86-5.85.28-12.6-.9-19.07a143.23,143.23,0,0,0-7.29-25.07,222,222,0,0,0-26.1-10.36L173.2,262.3l-8,20.14L154.31,309.7v32.39l40.05,3.05,40.13-.47c8.45,0,17.41-.29,26.54-.85Z"/><path class="cls-6" d="M161.41,269c2.05-1.35,1.83-2.3.37-3.93a27,27,0,0,0-3.92-3.63l-4.21-.23v-2.28c-7.93-3.58-16.76-1.51-23.61,6.24-1.59,1.8-1.21,2.59.45,4,2.73,2.27,5.14,4.93,7.78,7.32A5.13,5.13,0,0,1,140,281c-.38,8.78-.61,17.57-.9,26.35,1.21,3.2,3.48,5.77,5.24,8.63,1.39,2.26,2.41,1.75,3.59-.25,1.71-2.91,3.61-5.7,5.43-8.54-.24-5.88.29-11.92-.91-17.61C150.45,280.25,154,273.9,161.41,269Z"/><path class="cls-6" d="M157.86,261.43a22.93,22.93,0,0,0-4.21-2.51v2.28Z"/><path class="cls-7" d="M79.46,239.07,71,243.41a3.65,3.65,0,0,0-.21.4c2.79-1.62,5.68-3.18,8.68-4.63Z"/><path class="cls-7" d="M57,281.24C46.48,294.5,45.17,306,45.17,306c.24,11.14,7,12.76,9.4,13a5.16,5.16,0,0,0,4.7,3.2,5.43,5.43,0,0,0,0-10.85,5,5,0,0,0-3.44,1.39c-.74-.21-1.28-1.39-1.28-1.39-2.79-.16-1.76-6.06-1.76-6.06-.44-5.2,10.84-21.69,10.84-21.69,5.87-6.07,11.44.58,11.44.58C89,302.7,85.33,309.64,85.33,309.64a5,5,0,0,1-3,2.9,5.06,5.06,0,0,0-3.22-1.18,5.43,5.43,0,0,0,0,10.85,5.18,5.18,0,0,0,4.75-3.29l0,.12c3.37-.28,6.45-3.61,6.45-3.61,6.74-7.67-1.61-23-1.61-23-8.06-16.2-15.25-17.93-15.25-17.93-1.41-5.17,5.5-33.36,6-35.32-3,1.45-5.89,3-8.68,4.63-2.29,5.06-4.77,30.4-4.77,30.4C59.82,275.51,57,281.24,57,281.24Z"/><path class="cls-7" d="M212.05,239.07s.12.28.32.78q2.76,1.31,5.63,2.75Z"/><path class="cls-7" d="M223.76,283.65a14.61,14.61,0,0,1,3.82.51,142.74,142.74,0,0,0-.7-19l-1.29,0-5.93-.33c1.18,6.47,1.76,13.22.9,19.07h.05A14.9,14.9,0,0,1,223.76,283.65Z"/><path class="cls-7" d="M220.56,284h0Z"/><path class="cls-7" d="M225.59,265.25l1.29,0c-.78-7.06-2.28-14.67-5.16-20.39L218,242.6q-2.87-1.44-5.63-2.75a143.23,143.23,0,0,1,7.29,25.07Z"/><path class="cls-7" d="M227.58,284.19h.11l-.11,0Z"/><path class="cls-7" d="M227.55,285a5.4,5.4,0,0,1-7-.65l0-.3a14.8,14.8,0,1,0,7.14.19h-.11C227.56,284.67,227.55,285,227.55,285Zm-3.79,21.6a8.32,8.32,0,1,1,8.42-8.32A8.37,8.37,0,0,1,223.76,306.55Z"/><path class="cls-7" d="M220.61,284l7,.2v0a14.61,14.61,0,0,0-3.82-.51A14.9,14.9,0,0,0,220.61,284Z"/><path class="cls-7" d="M227.55,285s0-.28,0-.76l-7-.2h-.06l0,.3A5.4,5.4,0,0,0,227.55,285Z"/><ellipse class="cls-7" cx="223.76" cy="298.23" rx="8.43" ry="8.31"/></g></svg>